<svg xmlns="http://www.w3.org/2000/svg" width="97.668" height="95.279" viewBox="0 0 97.668 95.279">
  <g id="github-logo" transform="translate(0 -5.365)">
    <path id="Caminho_1" data-name="Caminho 1" d="M91.118,29.687A48.622,48.622,0,0,0,73.346,11.914,47.765,47.765,0,0,0,48.834,5.365a47.77,47.77,0,0,0-24.512,6.549A48.616,48.616,0,0,0,6.549,29.687,47.768,47.768,0,0,0,0,54.2,47.459,47.459,0,0,0,9.315,82.906a47.828,47.828,0,0,0,24.067,17.645,2.846,2.846,0,0,0,2.543-.445,2.487,2.487,0,0,0,.826-1.907q0-.191-.032-3.434t-.032-5.658l-1.463.253a18.657,18.657,0,0,1-3.529.223,26.886,26.886,0,0,1-4.419-.445,9.875,9.875,0,0,1-4.26-1.906,8.068,8.068,0,0,1-2.8-3.91l-.636-1.463a15.889,15.889,0,0,0-2-3.242A7.673,7.673,0,0,0,14.815,76.2l-.445-.319a4.668,4.668,0,0,1-.826-.764,3.488,3.488,0,0,1-.572-.89q-.191-.446.318-.732a4.124,4.124,0,0,1,1.844-.284l1.271.19a9.282,9.282,0,0,1,3.148,1.526,10.263,10.263,0,0,1,3.084,3.305,11.208,11.208,0,0,0,3.529,3.975,7.486,7.486,0,0,0,4.164,1.367,18.082,18.082,0,0,0,3.624-.317,12.647,12.647,0,0,0,2.861-.954,10.3,10.3,0,0,1,3.115-6.55,43.541,43.541,0,0,1-6.517-1.145,25.951,25.951,0,0,1-5.976-2.481,17.118,17.118,0,0,1-5.119-4.26,20.473,20.473,0,0,1-3.338-6.677,31.749,31.749,0,0,1-1.3-9.538,18.546,18.546,0,0,1,5.024-13.1q-2.353-5.785.445-12.971,1.844-.573,5.468.858a38.232,38.232,0,0,1,5.309,2.448q1.686,1.016,2.7,1.717a45.922,45.922,0,0,1,24.418,0l2.416-1.525a34.22,34.22,0,0,1,5.849-2.8q3.37-1.271,5.152-.7,2.86,7.185.508,12.971a18.549,18.549,0,0,1,5.024,13.1,32.1,32.1,0,0,1-1.3,9.569A19.678,19.678,0,0,1,75.32,67.9a17.776,17.776,0,0,1-5.152,4.228,26,26,0,0,1-5.978,2.48,43.494,43.494,0,0,1-6.517,1.146q3.305,2.86,3.305,9.028V98.2a2.533,2.533,0,0,0,.8,1.907,2.762,2.762,0,0,0,2.511.444A47.821,47.821,0,0,0,88.354,82.9,47.468,47.468,0,0,0,97.668,54.2,47.807,47.807,0,0,0,91.118,29.687Z" transform="translate(0 0)" fill="#8b60bc"/>
  </g>
</svg>
